solid OpenSCAD_Model
  facet normal 0 0 -1
    outer loop
      vertex -3622.8 0 0
      vertex -3622.8 3175 0
      vertex 3552.7 0 0
    endloop
  endfacet
  facet normal 0 0 -1
    outer loop
      vertex 3552.7 0 0
      vertex -3622.8 3175 0
      vertex 3552.7 3175 0
    endloop
  endfacet
  facet normal -1 0 0
    outer loop
      vertex -3622.8 3175 0
      vertex -3622.8 0 0
      vertex -3622.8 429.26 1594.22
    endloop
  endfacet
  facet normal 0 -0.965609 0.26
    outer loop
      vertex -3622.8 429.26 1594.22
      vertex -3622.8 0 0
      vertex 3552.7 0 0
    endloop
  endfacet
  facet normal 0 -0.965609 0.26
    outer loop
      vertex 3552.7 429.26 1594.22
      vertex -3622.8 429.26 1594.22
      vertex 3552.7 0 0
    endloop
  endfacet
  facet normal 1 0 0
    outer loop
      vertex 3552.7 429.26 1594.22
      vertex 3552.7 0 0
      vertex 3552.7 3175 0
    endloop
  endfacet
  facet normal 0 0.502117 0.8648
    outer loop
      vertex -3587.75 452.491 1580.73
      vertex -3622.8 429.26 1594.22
      vertex 3552.7 429.26 1594.22
    endloop
  endfacet
  facet normal 0 0.502117 0.8648
    outer loop
      vertex -3622.8 3175 0
      vertex -3622.8 429.26 1594.22
      vertex -3587.75 452.491 1580.73
    endloop
  endfacet
  facet normal 0 0.502117 0.8648
    outer loop
      vertex -3587.75 3114.63 35.052
      vertex 3517.65 3114.63 35.052
      vertex -3622.8 3175 0
    endloop
  endfacet
  facet normal 0 0.502117 0.8648
    outer loop
      vertex -3622.8 3175 0
      vertex -3587.75 452.491 1580.73
      vertex -3587.75 3114.63 35.052
    endloop
  endfacet
  facet normal 0 0.502117 0.8648
    outer loop
      vertex 3552.7 3175 0
      vertex 3517.65 3114.63 35.052
      vertex 3552.7 429.26 1594.22
    endloop
  endfacet
  facet normal 0 0.502117 0.8648
    outer loop
      vertex 3552.7 3175 0
      vertex -3622.8 3175 0
      vertex 3517.65 3114.63 35.052
    endloop
  endfacet
  facet normal 0 0.502117 0.8648
    outer loop
      vertex 3517.65 3114.63 35.052
      vertex 3517.65 452.491 1580.73
      vertex 3552.7 429.26 1594.22
    endloop
  endfacet
  facet normal 0 0.502117 0.8648
    outer loop
      vertex 3517.65 452.491 1580.73
      vertex -3587.75 452.491 1580.73
      vertex 3552.7 429.26 1594.22
    endloop
  endfacet
  facet normal 1 0 0
    outer loop
      vertex -3587.75 3114.63 35.052
      vertex -3587.75 452.491 1580.73
      vertex -3587.75 36.3004 35.052
    endloop
  endfacet
  facet normal 0 0.965609 -0.26
    outer loop
      vertex 3517.65 452.491 1580.73
      vertex 3517.65 36.3004 35.052
      vertex -3587.75 452.491 1580.73
    endloop
  endfacet
  facet normal 0 0.965609 -0.26
    outer loop
      vertex -3587.75 452.491 1580.73
      vertex 3517.65 36.3004 35.052
      vertex -3587.75 36.3004 35.052
    endloop
  endfacet
  facet normal -1 0 0
    outer loop
      vertex 3517.65 452.491 1580.73
      vertex 3517.65 3114.63 35.052
      vertex 3517.65 36.3004 35.052
    endloop
  endfacet
  facet normal 0 0 1
    outer loop
      vertex 3517.65 36.3004 35.052
      vertex 3517.65 3114.63 35.052
      vertex -3587.75 3114.63 35.052
    endloop
  endfacet
  facet normal 0 0 1
    outer loop
      vertex -3587.75 36.3004 35.052
      vertex 3517.65 36.3004 35.052
      vertex -3587.75 3114.63 35.052
    endloop
  endfacet
endsolid OpenSCAD_Model
